<?xml version="1.0" encoding="utf-8"?>
<!-- Generator: Adobe Illustrator 19.2.0, SVG Export Plug-In . SVG Version: 6.00 Build 0)  -->
<svg version="1.1" id="Layer_1" xmlns="http://www.w3.org/2000/svg" xmlns:xlink="http://www.w3.org/1999/xlink" x="0px" y="0px"
	 viewBox="0 0 411.3 100" style="enable-background:new 0 0 411.3 100;" xml:space="preserve">
<style type="text/css">
	.st0{fill:#212121;}
	.st1{fill:#16D856;}
	.st2{fill:#16BF49;}
</style>
<g>
	<path class="st0" d="M26.3,26.5h10.2v37.2h23.2v9.3H26.3V26.5z"/>
	<path class="st0" d="M119.1,49.8v-0.1c0-13.2,10-24,24.2-24c8.8,0,14,2.9,18.3,7.2l-6.5,7.5c-3.6-3.3-7.2-5.2-11.9-5.2
		c-7.8,0-13.5,6.5-13.5,14.5v0.1c0,8,5.5,14.6,13.5,14.6c5.3,0,8.6-2.1,12.2-5.4l6.5,6.6c-4.8,5.1-10.1,8.3-19,8.3
		C129.2,73.7,119.1,63.2,119.1,49.8z"/>
	<path class="st0" d="M186,26.1h9.4l19.9,46.8h-10.7l-4.2-10.4h-19.6l-4.2,10.4h-10.4L186,26.1z M196.8,53.5l-6.2-15.1l-6.2,15.1
		H196.8z"/>
	<path class="st0" d="M227.4,35.9h-14.1v-9.4h38.5v9.4h-14.1v37h-10.2V35.9z"/>
	<path class="st0" d="M269.5,26.1h9.4l19.9,46.8h-10.7l-4.2-10.4h-19.6L260,72.9h-10.4L269.5,26.1z M280.3,53.5l-6.2-15.1l-6.2,15.1
		H280.3z"/>
	<path class="st1" d="M73.3,49.7v-0.1c0-7.8,5.5-14.2,13.5-14.4v-9.4c-14,0.3-24.1,11-24.1,24v0.1c0,0.1,0,0.2,0,0.3
		c0,0.1,0,0.2,0,0.3C63,74.6,84.3,90.1,86.8,91.8V64.2C78.9,63.9,73.3,57.4,73.3,49.7z"/>
	<path class="st2" d="M112.1,50.4c0-1-0.1-1.9-0.2-2.9c-1-12.3-10.9-21.9-24.5-21.9c0,0,0,0,0,0c0,0,0,0,0,0c-0.1,0-0.3,0-0.4,0
		c-0.1,0-0.1,0-0.2,0v9.4c0.2,0,0.3,0,0.5,0c8.2,0,14.1,6.6,14.1,14.6v0.1c0,8-5.7,14.5-13.9,14.5c-0.2,0-0.4,0-0.6,0v27.5
		C87,91.9,87,92,87,92S111.8,76.1,112.1,50.4z"/>
	<g>
		<path class="st0" d="M312.2,67.3h4.4V73h-4.4V67.3z"/>
		<path class="st0" d="M329.5,26.2h3.5V73h-3.5V26.2z"/>
		<path class="st0" d="M345.3,49.7v-0.1c0-12.7,9.4-24.2,23.6-24.2c14.2,0,23.4,11.3,23.4,24c0.1,0.1,0.1,0.1,0,0.1
			c0,12.7-9.4,24.2-23.6,24.2S345.3,62.5,345.3,49.7z M388.7,49.7v-0.1c0-11.5-8.4-21-20-21c-11.5,0-19.8,9.3-19.8,20.9v0.1
			c0,11.5,8.4,21,20,21C380.4,70.6,388.7,61.3,388.7,49.7z"/>
	</g>
</g>
</svg>
