<?xml version="1.0" encoding="utf-8"?>
<!-- Generator: Adobe Illustrator 19.2.0, SVG Export Plug-In . SVG Version: 6.00 Build 0)  -->
<svg version="1.1" id="Layer_1" xmlns="http://www.w3.org/2000/svg" xmlns:xlink="http://www.w3.org/1999/xlink" x="0px" y="0px"
	 viewBox="0 0 411.3 100" style="enable-background:new 0 0 411.3 100;" xml:space="preserve">
<style type="text/css">
	.st0{clip-path:url(#SVGID_2_);}
	.st1{clip-path:url(#SVGID_4_);fill:#FFFFFF;}
	.st2{clip-path:url(#SVGID_6_);}
	.st3{clip-path:url(#SVGID_8_);enable-background:new    ;}
	.st4{clip-path:url(#SVGID_10_);}
	.st5{clip-path:url(#SVGID_12_);}
	.st6{clip-path:url(#SVGID_14_);fill:#FFFFFF;}
	.st7{clip-path:url(#SVGID_16_);}
	.st8{clip-path:url(#SVGID_18_);fill:#FFFFFF;}
	.st9{clip-path:url(#SVGID_20_);}
	.st10{clip-path:url(#SVGID_22_);fill:#FFFFFF;}
	.st11{clip-path:url(#SVGID_24_);}
	.st12{clip-path:url(#SVGID_26_);fill:#FFFFFF;}
	.st13{clip-path:url(#SVGID_28_);}
	.st14{clip-path:url(#SVGID_30_);enable-background:new    ;}
	.st15{clip-path:url(#SVGID_32_);}
	.st16{clip-path:url(#SVGID_34_);}
	.st17{clip-path:url(#SVGID_36_);fill:#FFFFFF;}
	.st18{clip-path:url(#SVGID_38_);}
	.st19{clip-path:url(#SVGID_40_);fill:#FFFFFF;}
	.st20{clip-path:url(#SVGID_42_);}
	.st21{clip-path:url(#SVGID_44_);fill:#FFFFFF;}
	.st22{clip-path:url(#SVGID_46_);}
	.st23{clip-path:url(#SVGID_48_);fill:#FFFFFF;}
	.st24{clip-path:url(#SVGID_50_);}
	.st25{clip-path:url(#SVGID_52_);fill:#FFFFFF;}
	.st26{clip-path:url(#SVGID_54_);}
	.st27{clip-path:url(#SVGID_56_);fill:#FFFFFF;}
	.st28{clip-path:url(#SVGID_58_);}
	.st29{clip-path:url(#SVGID_60_);fill:#FFFFFF;}
	.st30{clip-path:url(#SVGID_62_);}
	.st31{clip-path:url(#SVGID_64_);fill:#FFFFFF;}
	.st32{clip-path:url(#SVGID_66_);}
	.st33{clip-path:url(#SVGID_68_);fill:#FFFFFF;}
	.st34{clip-path:url(#SVGID_70_);}
	.st35{clip-path:url(#SVGID_72_);fill:#FFFFFF;}
	.st36{clip-path:url(#SVGID_74_);}
	.st37{clip-path:url(#SVGID_76_);fill:#FFFFFF;}
	.st38{clip-path:url(#SVGID_78_);}
	.st39{clip-path:url(#SVGID_80_);fill:#FFFFFF;}
	.st40{fill:#FFFFFF;}
</style>
<g>
	<defs>
		<polygon id="SVGID_1_" points="-2,-554.5 -2,-520.3 22.6,-520.3 22.6,-527.1 5.5,-527.1 5.5,-554.5 		"/>
	</defs>
	<clipPath id="SVGID_2_">
		<use xlink:href="#SVGID_1_"  style="overflow:visible;"/>
	</clipPath>
	<g class="st0">
		<defs>
			<rect id="SVGID_3_" x="-589" y="-661.1" width="1440" height="1412"/>
		</defs>
		<clipPath id="SVGID_4_">
			<use xlink:href="#SVGID_3_"  style="overflow:visible;"/>
		</clipPath>
		<rect x="-7" y="-559.5" class="st1" width="34.6" height="44.3"/>
	</g>
</g>
<g>
	<defs>
		<rect id="SVGID_5_" x="67.7" y="-555.1" width="31.6" height="35.4"/>
	</defs>
	<clipPath id="SVGID_6_">
		<use xlink:href="#SVGID_5_"  style="overflow:visible;"/>
	</clipPath>
	<g class="st2">
		<defs>
			<rect id="SVGID_7_" x="-589" y="-661.1" width="1440" height="1412"/>
		</defs>
		<clipPath id="SVGID_8_">
			<use xlink:href="#SVGID_7_"  style="overflow:visible;"/>
		</clipPath>
		<g class="st3">
			<g>
				<defs>
					<rect id="SVGID_9_" x="67" y="-555.1" width="33" height="36"/>
				</defs>
				<clipPath id="SVGID_10_">
					<use xlink:href="#SVGID_9_"  style="overflow:visible;"/>
				</clipPath>
				<g class="st4">
					<defs>
						<path id="SVGID_11_" d="M67.7-537.3L67.7-537.3c0-9.8,7.3-17.8,17.9-17.8c6.5,0,10.3,2.2,13.5,5.3l-4.8,5.5
							c-2.6-2.4-5.3-3.9-8.8-3.9c-5.8,0-9.9,4.8-9.9,10.7v0.1c0,5.9,4.1,10.8,9.9,10.8c3.9,0,6.3-1.6,9-4l4.8,4.8
							c-3.5,3.8-7.4,6.1-14.1,6.1C75.1-519.7,67.7-527.5,67.7-537.3"/>
					</defs>
					<clipPath id="SVGID_12_">
						<use xlink:href="#SVGID_11_"  style="overflow:visible;"/>
					</clipPath>
					<g class="st5">
						<defs>
							<rect id="SVGID_13_" x="67" y="-555.1" width="33" height="36"/>
						</defs>
						<clipPath id="SVGID_14_">
							<use xlink:href="#SVGID_13_"  style="overflow:visible;"/>
						</clipPath>
						<rect x="62.7" y="-560.1" class="st6" width="41.6" height="45.4"/>
					</g>
				</g>
			</g>
		</g>
	</g>
</g>
<g>
	<defs>
		<path id="SVGID_15_" d="M117.1-554.8h7l14.7,34.5h-7.9l-3.1-7.7h-14.5l-3.1,7.7h-7.7L117.1-554.8z M125-534.6l-4.6-11.1l-4.6,11.1
			H125z"/>
	</defs>
	<clipPath id="SVGID_16_">
		<use xlink:href="#SVGID_15_"  style="overflow:visible;"/>
	</clipPath>
	<g class="st7">
		<defs>
			<rect id="SVGID_17_" x="-589" y="-661.1" width="1440" height="1412"/>
		</defs>
		<clipPath id="SVGID_18_">
			<use xlink:href="#SVGID_17_"  style="overflow:visible;"/>
		</clipPath>
		<rect x="97.4" y="-559.8" class="st8" width="46.3" height="44.5"/>
	</g>
</g>
<g>
	<defs>
		<polygon id="SVGID_19_" points="143.8,-547.6 133.4,-547.6 133.4,-554.5 161.8,-554.5 161.8,-547.6 151.4,-547.6 151.4,-520.3 
			143.8,-520.3 		"/>
	</defs>
	<clipPath id="SVGID_20_">
		<use xlink:href="#SVGID_19_"  style="overflow:visible;"/>
	</clipPath>
	<g class="st9">
		<defs>
			<rect id="SVGID_21_" x="-589" y="-661.1" width="1440" height="1412"/>
		</defs>
		<clipPath id="SVGID_22_">
			<use xlink:href="#SVGID_21_"  style="overflow:visible;"/>
		</clipPath>
		<rect x="128.4" y="-559.5" class="st10" width="38.4" height="44.3"/>
	</g>
</g>
<g>
	<defs>
		<path id="SVGID_23_" d="M171.2-554.8h7l14.7,34.5h-7.9l-3.1-7.7h-14.5l-3.1,7.7h-7.7L171.2-554.8z M179.1-534.6l-4.6-11.1
			l-4.6,11.1H179.1z"/>
	</defs>
	<clipPath id="SVGID_24_">
		<use xlink:href="#SVGID_23_"  style="overflow:visible;"/>
	</clipPath>
	<g class="st11">
		<defs>
			<rect id="SVGID_25_" x="-589" y="-661.1" width="1440" height="1412"/>
		</defs>
		<clipPath id="SVGID_26_">
			<use xlink:href="#SVGID_25_"  style="overflow:visible;"/>
		</clipPath>
		<rect x="151.5" y="-559.8" class="st12" width="46.3" height="44.5"/>
	</g>
</g>
<g>
	<defs>
		<rect id="SVGID_27_" x="-2" y="-555.1" width="266.2" height="49"/>
	</defs>
	<clipPath id="SVGID_28_">
		<use xlink:href="#SVGID_27_"  style="overflow:visible;"/>
	</clipPath>
	<g class="st13">
		<defs>
			<rect id="SVGID_29_" x="-589" y="-661.1" width="1440" height="1412"/>
		</defs>
		<clipPath id="SVGID_30_">
			<use xlink:href="#SVGID_29_"  style="overflow:visible;"/>
		</clipPath>
		<g class="st14">
			<g>
				<defs>
					<rect id="SVGID_31_" x="-2" y="-555.1" width="267" height="50"/>
				</defs>
				<clipPath id="SVGID_32_">
					<use xlink:href="#SVGID_31_"  style="overflow:visible;"/>
				</clipPath>
				<g class="st15">
					<defs>
						<rect id="SVGID_33_" x="198" y="-524.4" width="3.2" height="4.2"/>
					</defs>
					<clipPath id="SVGID_34_">
						<use xlink:href="#SVGID_33_"  style="overflow:visible;"/>
					</clipPath>
					<g class="st16">
						<defs>
							<rect id="SVGID_35_" x="-2" y="-555.1" width="267" height="49"/>
						</defs>
						<clipPath id="SVGID_36_">
							<use xlink:href="#SVGID_35_"  style="overflow:visible;"/>
						</clipPath>
						<rect x="193" y="-529.4" class="st17" width="13.2" height="14.2"/>
					</g>
				</g>
				<g class="st15">
					<defs>
						<polygon id="SVGID_37_" points="206.5,-554.7 231,-554.7 231,-552.3 209.1,-552.3 209.1,-538.8 228.8,-538.8 228.8,-536.4 
							209.1,-536.4 209.1,-522.6 231.2,-522.6 231.2,-520.3 206.5,-520.3 						"/>
					</defs>
					<clipPath id="SVGID_38_">
						<use xlink:href="#SVGID_37_"  style="overflow:visible;"/>
					</clipPath>
					<g class="st18">
						<defs>
							<rect id="SVGID_39_" x="-2" y="-555.1" width="267" height="49"/>
						</defs>
						<clipPath id="SVGID_40_">
							<use xlink:href="#SVGID_39_"  style="overflow:visible;"/>
						</clipPath>
						<rect x="201.5" y="-559.7" class="st19" width="34.7" height="44.4"/>
					</g>
				</g>
				<g class="st15">
					<defs>
						<path id="SVGID_41_" d="M236-534.6v-20.1h2.6v19.9c0,8.1,4.4,12.8,11.7,12.8c7,0,11.5-4.2,11.5-12.5v-20.1h2.6v19.8
							c0,9.9-5.8,15.1-14.1,15.1C241.9-519.7,236-524.9,236-534.6"/>
					</defs>
					<clipPath id="SVGID_42_">
						<use xlink:href="#SVGID_41_"  style="overflow:visible;"/>
					</clipPath>
					<g class="st20">
						<defs>
							<rect id="SVGID_43_" x="-2" y="-555.1" width="267" height="49"/>
						</defs>
						<clipPath id="SVGID_44_">
							<use xlink:href="#SVGID_43_"  style="overflow:visible;"/>
						</clipPath>
						<rect x="231" y="-559.7" class="st21" width="38.2" height="45"/>
					</g>
				</g>
				<g class="st15">
					<defs>
						<polygon id="SVGID_45_" points="-2,-554.5 5.5,-554.5 5.5,-527.1 22.6,-527.1 22.6,-520.3 -2,-520.3 						"/>
					</defs>
					<clipPath id="SVGID_46_">
						<use xlink:href="#SVGID_45_"  style="overflow:visible;"/>
					</clipPath>
					<g class="st22">
						<defs>
							<rect id="SVGID_47_" x="-2" y="-555.1" width="267" height="49"/>
						</defs>
						<clipPath id="SVGID_48_">
							<use xlink:href="#SVGID_47_"  style="overflow:visible;"/>
						</clipPath>
						<rect x="-7" y="-559.5" class="st23" width="34.6" height="44.3"/>
					</g>
				</g>
				<g class="st15">
					<defs>
						<path id="SVGID_49_" d="M67.7-537.3L67.7-537.3c0-9.8,7.3-17.8,17.9-17.8c6.5,0,10.3,2.2,13.5,5.3l-4.8,5.5
							c-2.6-2.4-5.3-3.9-8.8-3.9c-5.8,0-9.9,4.8-9.9,10.7v0.1c0,5.9,4.1,10.8,9.9,10.8c3.9,0,6.3-1.6,9-4l4.8,4.8
							c-3.5,3.8-7.4,6.1-14.1,6.1C75.1-519.7,67.7-527.5,67.7-537.3"/>
					</defs>
					<clipPath id="SVGID_50_">
						<use xlink:href="#SVGID_49_"  style="overflow:visible;"/>
					</clipPath>
					<g class="st24">
						<defs>
							<rect id="SVGID_51_" x="-2" y="-555.1" width="267" height="49"/>
						</defs>
						<clipPath id="SVGID_52_">
							<use xlink:href="#SVGID_51_"  style="overflow:visible;"/>
						</clipPath>
						<rect x="62.7" y="-560.1" class="st25" width="41.6" height="45.4"/>
					</g>
				</g>
				<g class="st15">
					<defs>
						<path id="SVGID_53_" d="M117.1-554.8h7l14.7,34.5h-7.9l-3.1-7.7h-14.5l-3.1,7.7h-7.7L117.1-554.8z M125-534.6l-4.6-11.1
							l-4.6,11.1H125z"/>
					</defs>
					<clipPath id="SVGID_54_">
						<use xlink:href="#SVGID_53_"  style="overflow:visible;"/>
					</clipPath>
					<g class="st26">
						<defs>
							<rect id="SVGID_55_" x="-2" y="-555.1" width="267" height="49"/>
						</defs>
						<clipPath id="SVGID_56_">
							<use xlink:href="#SVGID_55_"  style="overflow:visible;"/>
						</clipPath>
						<rect x="97.4" y="-559.8" class="st27" width="46.3" height="44.5"/>
					</g>
				</g>
				<g class="st15">
					<defs>
						<polygon id="SVGID_57_" points="143.8,-547.6 133.4,-547.6 133.4,-554.5 161.8,-554.5 161.8,-547.6 151.4,-547.6 
							151.4,-520.3 143.8,-520.3 						"/>
					</defs>
					<clipPath id="SVGID_58_">
						<use xlink:href="#SVGID_57_"  style="overflow:visible;"/>
					</clipPath>
					<g class="st28">
						<defs>
							<rect id="SVGID_59_" x="-2" y="-555.1" width="267" height="49"/>
						</defs>
						<clipPath id="SVGID_60_">
							<use xlink:href="#SVGID_59_"  style="overflow:visible;"/>
						</clipPath>
						<rect x="128.4" y="-559.5" class="st29" width="38.4" height="44.3"/>
					</g>
				</g>
				<g class="st15">
					<defs>
						<path id="SVGID_61_" d="M171.2-554.8h7l14.7,34.5h-7.9l-3.1-7.7h-14.5l-3.1,7.7h-7.7L171.2-554.8z M179.1-534.6l-4.6-11.1
							l-4.6,11.1H179.1z"/>
					</defs>
					<clipPath id="SVGID_62_">
						<use xlink:href="#SVGID_61_"  style="overflow:visible;"/>
					</clipPath>
					<g class="st30">
						<defs>
							<rect id="SVGID_63_" x="-2" y="-555.1" width="267" height="49"/>
						</defs>
						<clipPath id="SVGID_64_">
							<use xlink:href="#SVGID_63_"  style="overflow:visible;"/>
						</clipPath>
						<rect x="151.5" y="-559.8" class="st31" width="46.3" height="44.5"/>
					</g>
				</g>
				<g class="st15">
					<defs>
						<path id="SVGID_65_" d="M62.5-538.9c-0.7-9-8.1-16.1-18.1-16.1c0,0,0,0,0,0c0,0,0,0,0,0c-0.1,0-0.2,0-0.3,0
							c-0.1,0-0.1,0-0.2,0c-10.3,0.2-17.8,8.1-17.8,17.7v0.1c0,0.1,0,0.1,0,0.2c0,0.1,0,0.1,0,0.2c0.2,17.9,16,29.3,17.8,30.5
							c0.1,0.1,0.2,0.1,0.2,0.1s18.2-11.7,18.5-30.7C62.6-537.5,62.6-538.2,62.5-538.9z M54.7-537.2c0,5.9-4.2,10.7-10.3,10.7
							c-0.2,0-0.3,0-0.5,0c-5.8-0.2-9.9-5-9.9-10.7v-0.1c0-5.8,4-10.5,9.9-10.7c0.1,0,0.2,0,0.4,0C50.4-548,54.7-543.1,54.7-537.2
							L54.7-537.2z"/>
					</defs>
					<clipPath id="SVGID_66_">
						<use xlink:href="#SVGID_65_"  style="overflow:visible;"/>
					</clipPath>
					<g class="st32">
						<defs>
							<rect id="SVGID_67_" x="-2" y="-555.1" width="267" height="49"/>
						</defs>
						<clipPath id="SVGID_68_">
							<use xlink:href="#SVGID_67_"  style="overflow:visible;"/>
						</clipPath>
						<rect x="21.2" y="-560" class="st33" width="46.5" height="58.9"/>
					</g>
				</g>
				<g class="st15">
					<defs>
						<rect id="SVGID_69_" x="198" y="-524.4" width="3.2" height="4.2"/>
					</defs>
					<clipPath id="SVGID_70_">
						<use xlink:href="#SVGID_69_"  style="overflow:visible;"/>
					</clipPath>
					<g class="st34">
						<defs>
							<rect id="SVGID_71_" x="-2" y="-555.1" width="267" height="49"/>
						</defs>
						<clipPath id="SVGID_72_">
							<use xlink:href="#SVGID_71_"  style="overflow:visible;"/>
						</clipPath>
						<rect x="193" y="-529.4" class="st35" width="13.2" height="14.2"/>
					</g>
				</g>
				<g class="st15">
					<defs>
						<polygon id="SVGID_73_" points="206.5,-554.7 231,-554.7 231,-552.3 209.1,-552.3 209.1,-538.8 228.8,-538.8 228.8,-536.4 
							209.1,-536.4 209.1,-522.6 231.2,-522.6 231.2,-520.3 206.5,-520.3 						"/>
					</defs>
					<clipPath id="SVGID_74_">
						<use xlink:href="#SVGID_73_"  style="overflow:visible;"/>
					</clipPath>
					<g class="st36">
						<defs>
							<rect id="SVGID_75_" x="-2" y="-555.1" width="267" height="49"/>
						</defs>
						<clipPath id="SVGID_76_">
							<use xlink:href="#SVGID_75_"  style="overflow:visible;"/>
						</clipPath>
						<rect x="201.5" y="-559.7" class="st37" width="34.7" height="44.4"/>
					</g>
				</g>
				<g class="st15">
					<defs>
						<path id="SVGID_77_" d="M236-534.6v-20.1h2.6v19.9c0,8.1,4.4,12.8,11.7,12.8c7,0,11.5-4.2,11.5-12.5v-20.1h2.6v19.8
							c0,9.9-5.8,15.1-14.1,15.1C241.9-519.7,236-524.9,236-534.6"/>
					</defs>
					<clipPath id="SVGID_78_">
						<use xlink:href="#SVGID_77_"  style="overflow:visible;"/>
					</clipPath>
					<g class="st38">
						<defs>
							<rect id="SVGID_79_" x="-2" y="-555.1" width="267" height="49"/>
						</defs>
						<clipPath id="SVGID_80_">
							<use xlink:href="#SVGID_79_"  style="overflow:visible;"/>
						</clipPath>
						<rect x="231" y="-559.7" class="st39" width="38.2" height="45"/>
					</g>
				</g>
			</g>
		</g>
	</g>
</g>
<g>
	<path class="st40" d="M16.7,18.1h10.7v38.9h24.2v9.7H16.7V18.1z"/>
	<path class="st40" d="M115.4,42.5v-0.1c0-13.8,10.4-25.1,25.3-25.1c9.2,0,14.6,3.1,19.2,7.5l-6.8,7.8c-3.7-3.4-7.6-5.5-12.4-5.5
		c-8.2,0-14.1,6.8-14.1,15.1v0.1c0,8.3,5.8,15.3,14.1,15.3c5.6,0,9-2.2,12.8-5.7l6.8,6.9c-5,5.3-10.5,8.7-19.9,8.7
		C126,67.5,115.4,56.5,115.4,42.5z"/>
	<path class="st40" d="M185.4,17.7h9.9l20.8,48.9h-11.2l-4.4-10.9h-20.5l-4.4,10.9h-10.9L185.4,17.7z M196.7,46.3l-6.5-15.7
		l-6.5,15.7H196.7z"/>
	<path class="st40" d="M223.4,27.9h-14.8v-9.9h40.2v9.9h-14.8v38.7h-10.7V27.9z"/>
	<path class="st40" d="M262.2,17.7h9.9l20.8,48.9h-11.2l-4.4-10.9h-20.5l-4.4,10.9h-10.9L262.2,17.7z M273.4,46.3l-6.5-15.7
		l-6.5,15.7H273.4z"/>
	<path class="st40" d="M300.2,60.8h4.6v5.9h-4.6V60.8z"/>
	<path class="st40" d="M312.2,17.9h34.7v3.3h-31.1v19.2h27.9v3.3h-27.9v19.6h31.4v3.3h-35V17.9z"/>
	<path class="st40" d="M354.1,46.4V17.9h3.6V46c0,11.5,6.2,18.1,16.5,18.1c9.9,0,16.2-6,16.2-17.8V17.9h3.6V46
		c0,14-8.1,21.5-20,21.5C362.3,67.4,354.1,60,354.1,46.4z"/>
	<path class="st40" d="M16.7,18.1h10.7v38.9h24.2v9.7H16.7V18.1z"/>
	<path class="st40" d="M115.4,42.5v-0.1c0-13.8,10.4-25.1,25.3-25.1c9.2,0,14.6,3.1,19.2,7.5l-6.8,7.8c-3.7-3.4-7.6-5.5-12.4-5.5
		c-8.2,0-14.1,6.8-14.1,15.1v0.1c0,8.3,5.8,15.3,14.1,15.3c5.6,0,9-2.2,12.8-5.7l6.8,6.9c-5,5.3-10.5,8.7-19.9,8.7
		C126,67.5,115.4,56.5,115.4,42.5z"/>
	<path class="st40" d="M185.4,17.7h9.9l20.8,48.9h-11.2l-4.4-10.9h-20.5l-4.4,10.9h-10.9L185.4,17.7z M196.7,46.3l-6.5-15.7
		l-6.5,15.7H196.7z"/>
	<path class="st40" d="M223.4,27.9h-14.8v-9.9h40.2v9.9h-14.8v38.7h-10.7V27.9z"/>
	<path class="st40" d="M262.2,17.7h9.9l20.8,48.9h-11.2l-4.4-10.9h-20.5l-4.4,10.9h-10.9L262.2,17.7z M273.4,46.3l-6.5-15.7
		l-6.5,15.7H273.4z"/>
	<path class="st40" d="M108.1,40.3c-1-12.8-11.4-22.9-25.6-22.9c0,0,0,0,0,0c0,0,0,0,0,0c-0.1,0-0.3,0-0.4,0c-0.1,0-0.1,0-0.2,0
		c-14.6,0.3-25.2,11.5-25.2,25.1v0.1c0,0.1,0,0.2,0,0.3c0,0.1,0,0.2,0,0.3c0.3,25.3,22.6,41.5,25.2,43.3c0.2,0.1,0.3,0.2,0.3,0.2
		s25.9-16.6,26.2-43.5C108.3,42.3,108.2,41.3,108.1,40.3z M97,42.7c0,8.3-6,15.1-14.6,15.1c-0.2,0-0.4,0-0.6,0
		c-8.3-0.3-14.1-7.1-14.1-15.2v-0.1c0-8.2,5.7-14.8,14.1-15.1c0.2,0,0.3,0,0.5,0c8.6,0,14.7,6.9,14.7,15.3V42.7z"/>
	<path class="st40" d="M300.2,60.8h4.6v5.9h-4.6V60.8z"/>
	<path class="st40" d="M312.2,17.9h34.7v3.3h-31.1v19.2h27.9v3.3h-27.9v19.6h31.4v3.3h-35V17.9z"/>
	<path class="st40" d="M354.1,46.4V17.9h3.6V46c0,11.5,6.2,18.1,16.5,18.1c9.9,0,16.2-6,16.2-17.8V17.9h3.6V46
		c0,14-8.1,21.5-20,21.5C362.3,67.4,354.1,60,354.1,46.4z"/>
</g>
</svg>
