<?xml version="1.0" encoding="utf-8"?>
<!-- Generator: Adobe Illustrator 19.2.0, SVG Export Plug-In . SVG Version: 6.00 Build 0)  -->
<svg version="1.1" id="Layer_1" xmlns="http://www.w3.org/2000/svg" xmlns:xlink="http://www.w3.org/1999/xlink" x="0px" y="0px"
	 viewBox="0 0 411.3 100" style="enable-background:new 0 0 411.3 100;" xml:space="preserve">
<style type="text/css">
	.st0{fill:#212121;}
	.st1{fill:#16D856;}
	.st2{fill:#16BF49;}
</style>
<g>
	<path class="st0" d="M20.4,21.1H31v38.3h23.9V69H20.4V21.1z"/>
	<path class="st0" d="M117.8,45.1V45c0-13.6,10.3-24.8,25-24.8c9,0,14.4,3,18.9,7.4l-6.7,7.7c-3.7-3.4-7.5-5.4-12.3-5.4
		c-8.1,0-13.9,6.7-13.9,14.9V45c0,8.2,5.7,15.1,13.9,15.1c5.5,0,8.8-2.2,12.6-5.6l6.7,6.8c-4.9,5.3-10.4,8.6-19.6,8.6
		C128.3,69.8,117.8,58.9,117.8,45.1z"/>
	<path class="st0" d="M186.9,20.7h9.7L217.1,69h-11l-4.4-10.7h-20.3L177.1,69h-10.7L186.9,20.7z M198,48.9l-6.4-15.5l-6.4,15.5H198z
		"/>
	<path class="st0" d="M224.3,30.8h-14.6v-9.7h39.7v9.7h-14.6V69h-10.5V30.8z"/>
	<path class="st0" d="M262.6,20.7h9.7L292.8,69h-11l-4.4-10.7h-20.3L252.8,69H242L262.6,20.7z M273.6,48.9l-6.4-15.5l-6.4,15.5
		H273.6z"/>
	<path class="st1" d="M70.8,45.2V45c0-8,5.7-14.6,13.9-14.9v-9.7c-14.5,0.3-24.9,11.3-24.9,24.7v0.1c0,0.1,0,0.2,0,0.3
		c0,0.1,0,0.2,0,0.3c0.3,25,22.3,40.9,24.9,42.7V60.2C76.5,59.9,70.8,53.2,70.8,45.2z"/>
	<path class="st2" d="M110.8,45.9c0-1-0.1-2-0.2-2.9c-1-12.6-11.3-22.6-25.3-22.6c0,0,0,0,0,0c0,0,0,0,0,0c-0.1,0-0.3,0-0.4,0
		c-0.1,0-0.1,0-0.2,0v9.7c0.2,0,0.3,0,0.5,0c8.5,0,14.5,6.8,14.5,15.1v0.1c0,8.2-5.9,14.9-14.4,14.9c-0.2,0-0.4,0-0.6,0v28.4
		c0.2,0.1,0.2,0.2,0.2,0.2S110.4,72.4,110.8,45.9z"/>
	<path class="st0" d="M300.1,63.2h4.5V69h-4.5V63.2z"/>
	<path d="M311.9,20.8h34.2v3.3h-30.6V43h27.6v3.3h-27.6v19.3h31V69h-34.6V20.8z"/>
	<path d="M353.2,49V20.8h3.6v27.8c0,11.3,6.1,17.9,16.3,17.9c9.8,0,16-5.9,16-17.5V20.8h3.6v27.7c0,13.8-8,21.2-19.7,21.2
		C361.4,69.7,353.2,62.4,353.2,49z"/>
</g>
</svg>
